<svg width="87" height="51" viewBox="0 0 87 51" fill="none" xmlns="http://www.w3.org/2000/svg">
<path d="M73.529 26.8203C71.7569 26.8203 70.2283 26.4292 68.9432 25.6469C67.666 24.8567 66.6802 23.7551 65.9858 22.3423C65.2993 20.9214 64.9561 19.2691 64.9561 17.3853C64.9561 15.5015 65.2993 13.8412 65.9858 12.4044C66.6802 10.9596 67.6461 9.83411 68.8833 9.02791C70.1285 8.21372 71.5813 7.80663 73.2416 7.80663C74.1995 7.80663 75.1454 7.96627 76.0793 8.28556C77.0132 8.60485 77.8633 9.12369 78.6296 9.8421C79.3959 10.5525 80.0066 11.4944 80.4615 12.6678C80.9165 13.8412 81.144 15.286 81.144 17.0022V18.1995H66.9676V15.7569H78.2704C78.2704 14.7192 78.0629 13.7933 77.6478 12.9791C77.2407 12.1649 76.658 11.5224 75.8997 11.0514C75.1494 10.5805 74.2633 10.345 73.2416 10.345C72.1161 10.345 71.1423 10.6244 70.3201 11.1831C69.5059 11.7339 68.8793 12.4523 68.4403 13.3383C68.0013 14.2243 67.7818 15.1742 67.7818 16.188V17.8163C67.7818 19.2053 68.0212 20.3826 68.5002 21.3485C68.9871 22.3064 69.6616 23.0367 70.5237 23.5396C71.3857 24.0345 72.3875 24.282 73.529 24.282C74.2713 24.282 74.9418 24.1782 75.5405 23.9707C76.1471 23.7551 76.67 23.4358 77.109 23.0128C77.548 22.5817 77.8873 22.0469 78.1267 21.4084L80.8567 22.1746C80.5693 23.1006 80.0864 23.9148 79.4079 24.6172C78.7294 25.3117 77.8913 25.8545 76.8935 26.2456C75.8957 26.6287 74.7742 26.8203 73.529 26.8203ZM71.8048 5.55564L74.7263 0H78.031L74.2953 5.55564H71.8048Z" fill="#2E231F"/>
<path d="M37.5249 26.4372V8.0461H40.2548V10.9197H40.4943C40.8774 9.93788 41.4961 9.17558 42.3502 8.63279C43.2043 8.08202 44.23 7.80663 45.4273 7.80663C46.6406 7.80663 47.6504 8.08202 48.4566 8.63279C49.2708 9.17558 49.9054 9.93788 50.3603 10.9197H50.5519C51.0229 9.96981 51.7293 9.21549 52.6712 8.65674C53.6131 8.09 54.7426 7.80663 56.0597 7.80663C57.704 7.80663 59.049 8.32148 60.0947 9.35119C61.1403 10.3729 61.6632 11.9654 61.6632 14.1286V26.4372H58.8375V14.1286C58.8375 12.7716 58.4663 11.8017 57.7239 11.219C56.9816 10.6363 56.1075 10.345 55.1018 10.345C53.8087 10.345 52.8069 10.7361 52.0965 11.5184C51.3861 12.2926 51.0308 13.2745 51.0308 14.4638V26.4372H48.1572V13.8412C48.1572 12.7955 47.818 11.9534 47.1395 11.3148C46.461 10.6683 45.587 10.345 44.5173 10.345C43.783 10.345 43.0965 10.5405 42.4579 10.9317C41.8273 11.3228 41.3165 11.8656 40.9253 12.56C40.5422 13.2465 40.3506 14.0408 40.3506 14.9427V26.4372H37.5249Z" fill="#2E231F"/>
<path d="M26.6227 26.8203C24.8507 26.8203 23.3221 26.4292 22.0369 25.6469C20.7598 24.8567 19.774 23.7551 19.0795 22.3423C18.393 20.9214 18.0498 19.2691 18.0498 17.3853C18.0498 15.5015 18.393 13.8412 19.0795 12.4044C19.774 10.9596 20.7398 9.83412 21.9771 9.02791C23.2223 8.21372 24.6751 7.80663 26.3354 7.80663C27.2932 7.80663 28.2391 7.96627 29.173 8.28556C30.107 8.60485 30.9571 9.1237 31.7234 9.8421C32.4897 10.5525 33.1003 11.4944 33.5553 12.6678C34.0103 13.8412 34.2378 15.286 34.2378 17.0022V18.1995H20.0613V15.7569H31.3642C31.3642 14.7192 31.1566 13.7933 30.7416 12.9791C30.3345 12.1649 29.7518 11.5224 28.9934 11.0514C28.2431 10.5805 27.3571 10.345 26.3354 10.345C25.2099 10.345 24.236 10.6244 23.4139 11.1831C22.5997 11.7339 21.9731 12.4523 21.5341 13.3383C21.095 14.2243 20.8755 15.1742 20.8755 16.188V17.8164C20.8755 19.2053 21.115 20.3826 21.5939 21.3485C22.0808 22.3064 22.7553 23.0367 23.6174 23.5396C24.4795 24.0345 25.4813 24.282 26.6227 24.282C27.3651 24.282 28.0356 24.1782 28.6342 23.9707C29.2409 23.7551 29.7637 23.4358 30.2028 23.0128C30.6418 22.5817 30.981 22.0469 31.2205 21.4084L33.9504 22.1747C33.6631 23.1006 33.1801 23.9148 32.5016 24.6172C31.8232 25.3117 30.985 25.8545 29.9872 26.2456C28.9895 26.6287 27.868 26.8203 26.6227 26.8203Z" fill="#2E231F"/>
<path d="M0 4.54987V1.91574H18.3911V4.54987H10.6802V26.4372H7.71084V4.54987H0Z" fill="#2E231F"/>
<path d="M84.1089 39.0044C84.0227 38.2764 83.6731 37.7113 83.0601 37.309C82.447 36.9067 81.6951 36.7055 80.8043 36.7055C80.153 36.7055 79.583 36.8109 79.0945 37.0216C78.6108 37.2323 78.2324 37.5221 77.9594 37.8909C77.6912 38.2596 77.5571 38.6787 77.5571 39.1481C77.5571 39.5408 77.6505 39.8784 77.8373 40.161C78.0289 40.4388 78.2731 40.6711 78.5701 40.8579C78.867 41.0399 79.1783 41.1907 79.504 41.3105C79.8297 41.4254 80.129 41.5188 80.402 41.5906L81.8963 41.9929C82.2794 42.0935 82.7057 42.2324 83.175 42.4096C83.6492 42.5868 84.1018 42.8287 84.5328 43.1352C84.9686 43.4369 85.3278 43.8249 85.6104 44.299C85.893 44.7731 86.0343 45.3551 86.0343 46.0447C86.0343 46.8398 85.8259 47.5582 85.4093 48.1999C84.9974 48.8417 84.3939 49.3518 83.5989 49.7301C82.8086 50.1085 81.8484 50.2977 80.7181 50.2977C79.6644 50.2977 78.7521 50.1276 77.981 49.7876C77.2147 49.4475 76.6112 48.9734 76.1706 48.3652C75.7348 47.7569 75.4881 47.0505 75.4307 46.2459H77.2698C77.3177 46.8014 77.5044 47.2612 77.8301 47.6252C78.1606 47.9844 78.5773 48.2526 79.0801 48.4298C79.5878 48.6022 80.1338 48.6884 80.7181 48.6884C81.3982 48.6884 82.0088 48.5783 82.55 48.358C83.0912 48.1329 83.5199 47.8216 83.836 47.4241C84.1521 47.0217 84.3101 46.5524 84.3101 46.016C84.3101 45.5275 84.1736 45.13 83.9006 44.8234C83.6276 44.5169 83.2684 44.2679 82.823 44.0763C82.3776 43.8847 81.8963 43.7171 81.379 43.5734L79.5687 43.0562C78.4192 42.7257 77.5092 42.254 76.8387 41.6409C76.1682 41.0279 75.833 40.2257 75.833 39.2343C75.833 38.4105 76.0557 37.6921 76.5011 37.0791C76.9513 36.4612 77.5547 35.9823 78.3114 35.6423C79.073 35.2974 79.9231 35.125 80.8618 35.125C81.8101 35.125 82.653 35.295 83.3905 35.6351C84.1281 35.9703 84.7124 36.4301 85.1434 37.0144C85.5793 37.5987 85.8092 38.262 85.8331 39.0044H84.1089Z" fill="#2E231F"/>
<path d="M73.6742 42.6826C73.6742 44.2343 73.3941 45.5754 72.8337 46.7056C72.2734 47.8359 71.5047 48.7076 70.5276 49.3206C69.5506 49.9337 68.4347 50.2402 67.1799 50.2402C65.9251 50.2402 64.8092 49.9337 63.8321 49.3206C62.8551 48.7076 62.0864 47.8359 61.5261 46.7056C60.9657 45.5754 60.6855 44.2343 60.6855 42.6826C60.6855 41.1309 60.9657 39.7898 61.5261 38.6596C62.0864 37.5293 62.8551 36.6576 63.8321 36.0446C64.8092 35.4315 65.9251 35.125 67.1799 35.125C68.4347 35.125 69.5506 35.4315 70.5276 36.0446C71.5047 36.6576 72.2734 37.5293 72.8337 38.6596C73.3941 39.7898 73.6742 41.1309 73.6742 42.6826ZM71.9501 42.6826C71.9501 41.4086 71.737 40.3334 71.3107 39.457C70.8892 38.5805 70.3169 37.9172 69.5937 37.467C68.8753 37.0168 68.0707 36.7917 67.1799 36.7917C66.2891 36.7917 65.4821 37.0168 64.7589 37.467C64.0405 37.9172 63.4682 38.5805 63.0419 39.457C62.6204 40.3334 62.4097 41.4086 62.4097 42.6826C62.4097 43.9566 62.6204 45.0318 63.0419 45.9082C63.4682 46.7847 64.0405 47.448 64.7589 47.8982C65.4821 48.3484 66.2891 48.5735 67.1799 48.5735C68.0707 48.5735 68.8753 48.3484 69.5937 47.8982C70.3169 47.448 70.8892 46.7847 71.3107 45.9082C71.737 45.0318 71.9501 43.9566 71.9501 42.6826Z" fill="#2E231F"/>
<path d="M58.2948 35.3262V50.039H56.5132V35.3262H58.2948Z" fill="#2E231F"/>
<path d="M47.1199 50.039H42.5796V35.3262H47.321C48.7483 35.3262 49.9695 35.6207 50.9849 36.2098C52.0002 36.7941 52.7785 37.6346 53.3197 38.7314C53.8609 39.8234 54.1315 41.1309 54.1315 42.6539C54.1315 44.1865 53.8585 45.5059 53.3125 46.6123C52.7665 47.7138 51.9715 48.5615 50.9274 49.1554C49.8833 49.7445 48.6142 50.039 47.1199 50.039ZM44.3612 48.4586H47.0049C48.2214 48.4586 49.2296 48.2239 50.0294 47.7545C50.8292 47.2852 51.4255 46.6171 51.8182 45.7502C52.211 44.8833 52.4073 43.8512 52.4073 42.6539C52.4073 41.4661 52.2133 40.4436 51.8254 39.5863C51.4375 38.7242 50.858 38.0633 50.0869 37.6035C49.3158 37.1389 48.3555 36.9067 47.2061 36.9067H44.3612V48.4586Z" fill="#2E231F"/>
<path d="M37.8472 35.3262H39.6288V45.0677C39.6288 46.0735 39.3918 46.9715 38.9176 47.7617C38.4483 48.5472 37.7849 49.1674 36.9277 49.6224C36.0704 50.0726 35.0646 50.2977 33.9104 50.2977C32.7561 50.2977 31.7504 50.0726 30.8931 49.6224C30.0358 49.1674 29.3701 48.5472 28.8959 47.7617C28.4266 46.9715 28.1919 46.0735 28.1919 45.0677V35.3262H29.9735V44.924C29.9735 45.6424 30.1316 46.2818 30.4477 46.8421C30.7638 47.3977 31.214 47.8359 31.7983 48.1568C32.3874 48.4729 33.0914 48.631 33.9104 48.631C34.7293 48.631 35.4334 48.4729 36.0225 48.1568C36.6116 47.8359 37.0618 47.3977 37.3731 46.8421C37.6892 46.2818 37.8472 45.6424 37.8472 44.924V35.3262Z" fill="#2E231F"/>
<path d="M15.0142 36.9067V35.3262H26.0488V36.9067H21.4223V50.039H19.6407V36.9067H15.0142Z" fill="#2E231F"/>
<path d="M11.5714 39.0044C11.4851 38.2764 11.1355 37.7113 10.5225 37.309C9.90945 36.9067 9.15752 36.7055 8.26671 36.7055C7.61536 36.7055 7.04542 36.8109 6.55691 37.0216C6.07319 37.2323 5.69483 37.5221 5.42184 37.8909C5.15364 38.2596 5.01953 38.6787 5.01953 39.1481C5.01953 39.5408 5.11293 39.8784 5.29971 40.161C5.49128 40.4388 5.73554 40.6711 6.03248 40.8579C6.32942 41.0399 6.64073 41.1907 6.9664 41.3105C7.29208 41.4254 7.59141 41.5188 7.8644 41.5906L9.35868 41.9929C9.74182 42.0935 10.1681 42.2324 10.6374 42.4096C11.1116 42.5868 11.5642 42.8287 11.9952 43.1352C12.431 43.4369 12.7902 43.8249 13.0728 44.299C13.3554 44.7731 13.4967 45.3551 13.4967 46.0447C13.4967 46.8398 13.2883 47.5582 12.8717 48.1999C12.4598 48.8417 11.8563 49.3518 11.0613 49.7301C10.271 50.1085 9.31078 50.2977 8.1805 50.2977C7.12684 50.2977 6.21447 50.1276 5.44339 49.7876C4.6771 49.4475 4.07364 48.9734 3.63302 48.3652C3.19719 47.7569 2.95054 47.0505 2.89307 46.2459H4.73217C4.78007 46.8014 4.96685 47.2612 5.29253 47.6252C5.62299 47.9844 6.03966 48.2526 6.54254 48.4298C7.05021 48.6022 7.5962 48.6884 8.1805 48.6884C8.86058 48.6884 9.47123 48.5783 10.0124 48.358C10.5536 48.1329 10.9823 47.8216 11.2984 47.4241C11.6145 47.0217 11.7725 46.5524 11.7725 46.016C11.7725 45.5275 11.636 45.13 11.363 44.8234C11.09 44.5169 10.7308 44.2679 10.2854 44.0763C9.84001 43.8847 9.35868 43.7171 8.84143 43.5734L7.03106 43.0562C5.88162 42.7257 4.97164 42.254 4.30113 41.6409C3.63062 41.0279 3.29537 40.2257 3.29537 39.2343C3.29537 38.4105 3.51808 37.6921 3.96348 37.0791C4.41368 36.4612 5.01714 35.9823 5.77385 35.6423C6.53536 35.2974 7.38547 35.125 8.32418 35.125C9.27247 35.125 10.1154 35.295 10.853 35.6351C11.5905 35.9703 12.1748 36.4301 12.6058 37.0144C13.0417 37.5987 13.2716 38.262 13.2955 39.0044H11.5714Z" fill="#2E231F"/>
</svg>
